<svg xmlns="http://www.w3.org/2000/svg" width="20" height="20" viewBox="0 0 20 20"><g transform="translate(-205 -5.052)"><rect width="20" height="20" transform="translate(205 5.052)" fill="none"/><g transform="translate(204.6 3.252)"><path d="M19.1,16.7a3.7,3.7,0,1,0,3.7,3.7A3.706,3.706,0,0,0,19.1,16.7Zm0,6.069a2.37,2.37,0,1,1,2.37-2.37A2.38,2.38,0,0,1,19.1,22.769Z" transform="translate(-8.532 -8.461)" fill="#fff"/><circle cx="0.838" cy="0.838" r="0.838" transform="translate(13.572 7.314)" fill="#fff"/><path d="M16.577,5.985A4.116,4.116,0,0,0,13.543,4.8H7.59A3.959,3.959,0,0,0,3.4,8.99v5.924a4.158,4.158,0,0,0,1.214,3.092,4.217,4.217,0,0,0,3.005,1.127h5.9a4.267,4.267,0,0,0,3.034-1.127,4.137,4.137,0,0,0,1.185-3.063V8.99a4.143,4.143,0,0,0-1.156-3.005Zm-.116,8.958a2.824,2.824,0,0,1-.838,2.11,2.987,2.987,0,0,1-2.11.751h-5.9a2.987,2.987,0,0,1-2.11-.751,2.9,2.9,0,0,1-.78-2.138V8.99a2.881,2.881,0,0,1,.78-2.11,2.939,2.939,0,0,1,2.11-.751h5.953a2.881,2.881,0,0,1,2.11.78,2.982,2.982,0,0,1,.78,2.081v5.953Z" fill="#fff"/></g></g></svg>