<svg xmlns="http://www.w3.org/2000/svg" width="40" height="40" viewBox="0 0 40 40"><g transform="translate(-880 -3288)"><g transform="translate(866.358 3286.12)"><path d="M36.534,29.175l5.588-9a.51.51,0,0,0,.045-.091,9.986,9.986,0,1,0-17.02,0,.578.578,0,0,0,.04.081L30.575,29.2c-4.182.592-6.933,2.313-6.933,4.4,0,2.588,4.393,4.614,10,4.614s10-2.027,10-4.614C43.642,31.5,40.763,29.741,36.534,29.175ZM26.151,19.586a8.867,8.867,0,1,1,15.012,0,.539.539,0,0,0-.046.093l-5.9,9.5c-.089.136-.106.167-.215.346l-1.491,2.4L26.2,19.687A.563.563,0,0,0,26.151,19.586Zm7.491,17.508c-5.234,0-8.882-1.842-8.882-3.495,0-1.5,2.747-2.913,6.442-3.351l1.815,3.041a.558.558,0,0,0,.475.272h0a.56.56,0,0,0,.475-.264l1.908-3.072c3.754.407,6.643,1.856,6.643,3.373C42.524,35.252,38.876,37.094,33.642,37.094Z" transform="translate(0 0)"/><path d="M48,25.564A3.635,3.635,0,1,0,44.366,29.2,3.64,3.64,0,0,0,48,25.564Zm-6.151,0a2.516,2.516,0,1,1,2.516,2.516A2.519,2.519,0,0,1,41.851,25.564Z" transform="translate(-10.724 -10.688)"/></g><rect width="40" height="40" transform="translate(880 3288)" fill="none"/></g></svg>