<svg xmlns="http://www.w3.org/2000/svg" width="32.677" height="32.675" viewBox="0 0 32.677 32.675"><g transform="translate(-15.608 -74.601)"><path d="M32.82,26.226l-6.614-4.411a1.93,1.93,0,0,0-2.585.42l-1.927,2.477a.823.823,0,0,1-1.056.222l-.366-.2A22.148,22.148,0,0,1,14.5,20.2a22.238,22.238,0,0,1-4.534-5.772l-.2-.366A.824.824,0,0,1,9.983,13l2.475-1.926a1.932,1.932,0,0,0,.42-2.585L8.468,1.875A1.92,1.92,0,0,0,5.88,1.293L3.114,2.954A3.9,3.9,0,0,0,1.335,5.263c-1,3.629-.247,9.892,8.979,19.118,7.339,7.338,12.8,9.312,16.557,9.312a9.647,9.647,0,0,0,2.559-.334,3.9,3.9,0,0,0,2.309-1.779L33.4,28.816A1.921,1.921,0,0,0,32.82,26.226Zm-.356,2.031L30.8,31.023a2.814,2.814,0,0,1-1.661,1.287c-3.35.92-9.2.158-18.06-8.7S1.466,8.9,2.385,5.551A2.819,2.819,0,0,1,3.674,3.888L6.44,2.229a.833.833,0,0,1,1.123.253l2.4,3.6L11.97,9.095a.838.838,0,0,1-.182,1.122L9.312,12.143a1.906,1.906,0,0,0-.5,2.446l.2.357a23.1,23.1,0,0,0,4.72,6.023,23.125,23.125,0,0,0,6.022,4.72l.358.2a1.906,1.906,0,0,0,2.446-.5L24.476,22.9a.839.839,0,0,1,1.122-.182l6.613,4.411A.833.833,0,0,1,32.464,28.257Z" transform="translate(14.608 73.583)"/><path d="M283.558,122.384a10.243,10.243,0,0,1,10.231,10.231.93.93,0,0,0,1.86,0,12.1,12.1,0,0,0-12.091-12.091.93.93,0,1,0,0,1.86Z" transform="translate(-251.316 -42.214)"/><path d="M283.519,173.506a4.461,4.461,0,0,1,4.455,4.455.891.891,0,0,0,1.782,0,6.245,6.245,0,0,0-6.238-6.238.891.891,0,1,0,0,1.782Z" transform="translate(-251.014 -88.001)"/></g></svg>