<svg xmlns="http://www.w3.org/2000/svg" xmlns:xlink="http://www.w3.org/1999/xlink" width="121" height="100" viewBox="0 0 121 100"><defs><clipPath id="a"><rect width="121" height="100" transform="translate(426 2304)" fill="#b89d64"/></clipPath></defs><g transform="translate(-426 -2304)" clip-path="url(#a)"><g transform="translate(426 2293.5)"><path d="M116.042,36.344a1.773,1.773,0,1,0-3.072,1.769,34.612,34.612,0,0,1,4.486,17.509v44.591a5.339,5.339,0,0,1-5.333,5.333H6.594a3.049,3.049,0,1,1,0-6.1H20.225a1.772,1.772,0,1,0,0-3.545H8.367V83.243h98.651a1.947,1.947,0,0,1,1.945,1.945v8.77a1.947,1.947,0,0,1-1.945,1.945h-79.7a1.772,1.772,0,1,0,0,3.545h79.7a5.5,5.5,0,0,0,5.49-5.49v-8.77a5.5,5.5,0,0,0-5.49-5.49H6.594a3.049,3.049,0,0,1,0-6.1H107.018a5.5,5.5,0,0,0,5.49-5.49V59.34a5.5,5.5,0,0,0-5.488-5.49H6.75c-.038,0-.076,0-.115-.005H6.614a3.124,3.124,0,0,1-3.068-2.961,3.036,3.036,0,0,1,1.862-2.893c3.314-1.4,42.859-19.857,58.514-27.169a14.846,14.846,0,0,1,1.063,2.917,10.668,10.668,0,1,0,3.621-.086,19.148,19.148,0,0,0-1.467-4.334L70.163,17.9a16.973,16.973,0,0,1,11.873-1c8.039,2.276,19.24,6.839,26.949,15.65a1.772,1.772,0,0,0,2.668-2.334C103.372,20.757,91.5,15.9,83,13.495a20.511,20.511,0,0,0-14.346,1.2l-3.45,1.612a13.585,13.585,0,0,0-6.665-4.324,1.772,1.772,0,0,0-1.019,3.4,10.219,10.219,0,0,1,4.308,2.505c-15.966,7.456-54.627,25.5-57.8,26.84A6.56,6.56,0,0,0,0,50.976a6.663,6.663,0,0,0,4.819,6.146V70.3a6.592,6.592,0,0,0,0,12.7V96.147a6.593,6.593,0,0,0,1.772,12.944H112.123A8.888,8.888,0,0,0,121,100.213V55.622A38.113,38.113,0,0,0,116.042,36.344ZM8.367,57.395h98.653a1.947,1.947,0,0,1,1.933,1.746,1.968,1.968,0,0,1,.01.2V68.11a1.947,1.947,0,0,1-1.945,1.945H8.367ZM66.961,27.083c.05,0,.1.007.152.007.023,0,.047,0,.071-.005a7.107,7.107,0,1,1-.223,0Z" fill="#b89d64"/></g></g></svg>