<svg xmlns="http://www.w3.org/2000/svg" xmlns:xlink="http://www.w3.org/1999/xlink" width="121" height="100" viewBox="0 0 121 100"><defs><clipPath id="a"><rect width="121" height="100" transform="translate(426 2304)" fill="#b89d64"/></clipPath></defs><g transform="translate(-426 -2304)" clip-path="url(#a)"><g transform="translate(434.432 2301.932)"><path d="M74.828,8.763l.014-.287a5.965,5.965,0,0,0-1.609-4.464A6.864,6.864,0,0,0,66.973,2.2L40.789,6.914a6.618,6.618,0,0,0-5.131-2.521,7.022,7.022,0,0,0-4.652,1.85L9.682,25.287A7.1,7.1,0,0,0,7.24,30.729,6.628,6.628,0,0,0,7.476,32.3,7.159,7.159,0,0,0,4.66,37.032L.655,61.367l-.289-.009.194.579L.111,64.657A7.182,7.182,0,0,0,1.562,70.5a5.836,5.836,0,0,0,2.791,1.8c4.557,11.022,14.021,29.765,25.69,29.765a11.5,11.5,0,0,0,5.06-1.2c6.842-3.332,6.235-19.127,5.039-29.432l.042,0c3.63-.124,7.154-3.3,8.027-7.226l.277-1.252a8.939,8.939,0,0,0,3.963-1.721l7.611-5.969a8.429,8.429,0,0,0,2.356-3l3.039-.374a8.8,8.8,0,0,0,7.26-5.856c5.654,1.6,13.66,3.5,19.834,3.5h0c4.932,0,8.117-1.2,9.734-3.676a11.285,11.285,0,0,0,1.423-9.335C100.881,25.536,83.548,13.978,74.828,8.763Zm23.2,34.315c-.209.321-1.225,1.369-5.469,1.369h0c-5.872,0-13.933-2-19.322-3.565L74.54,14.55C83.9,20.4,96.75,29.92,98.78,37.8A6.3,6.3,0,0,1,98.024,43.079Zm-30.054.972a1.915,1.915,0,0,1-.117.528,3.78,3.78,0,0,1-3.017,2.262l-1.588.2a8.384,8.384,0,0,0-1.009-2.921L43.6,11.585,66.157,7.522l1.721-.309a3.159,3.159,0,0,1,.554-.051,1.546,1.546,0,0,1,1.111.364.862.862,0,0,1,.211.7l-.027.538L68.074,41.971ZM56.918,51.262,54.6,53.083,49.856,56.8l-.549.43a4.082,4.082,0,0,1-2.322.744A4.521,4.521,0,0,1,44.5,57.4a3.065,3.065,0,0,1-.326-.209L26.192,42.639l-7.023-5.683-6.018-4.87a2.418,2.418,0,0,1-.493-.547,1.75,1.75,0,0,1-.321-.933,2,2,0,0,1,.742-1.517L34.4,10.044a2.146,2.146,0,0,1,.792-.45,1.568,1.568,0,0,1,.469-.105,1.707,1.707,0,0,1,1.435.99l.272.474,1.484,2.592,18.969,33.1a3.2,3.2,0,0,1,.352,1.012,4,4,0,0,1-.431,2.619A3.28,3.28,0,0,1,56.918,51.262ZM43.235,63.109c-.4,1.8-2.031,3.2-3.224,3.237l-.555.019-2.575.088-16.263.557-12.724.435L6.2,67.5,6.15,69.864l-.005.173h0V67.5a.849.849,0,0,1-.7-.3,2.181,2.181,0,0,1-.306-1.721l.238-1.44L5.8,61.508,9.691,37.859a2.134,2.134,0,0,1,.732-1.427l30.546,24.72a8.615,8.615,0,0,0,2.4,1.34ZM32.871,96.29a6.356,6.356,0,0,1-2.828.686c-7.052,0-14.9-12.717-20.08-24.506l25.045-.854C36.344,83.325,35.916,94.807,32.871,96.29Z" fill="#b89d64"/></g><g transform="translate(434.432 2301.932)"><path d="M74.828,8.763l.014-.287a5.965,5.965,0,0,0-1.609-4.464A6.864,6.864,0,0,0,66.973,2.2L40.789,6.914a6.618,6.618,0,0,0-5.131-2.521,7.022,7.022,0,0,0-4.652,1.85L9.682,25.287A7.1,7.1,0,0,0,7.24,30.729,6.628,6.628,0,0,0,7.476,32.3,7.159,7.159,0,0,0,4.66,37.032L.655,61.367l-.289-.009.194.579L.111,64.657A7.182,7.182,0,0,0,1.562,70.5a5.836,5.836,0,0,0,2.791,1.8c4.557,11.022,14.021,29.765,25.69,29.765a11.5,11.5,0,0,0,5.06-1.2c6.842-3.332,6.235-19.127,5.039-29.432l.042,0c3.63-.124,7.154-3.3,8.027-7.226l.277-1.252a8.939,8.939,0,0,0,3.963-1.721l7.611-5.969a8.429,8.429,0,0,0,2.356-3l3.039-.374a8.8,8.8,0,0,0,7.26-5.856c5.654,1.6,13.66,3.5,19.834,3.5h0c4.932,0,8.117-1.2,9.734-3.676a11.285,11.285,0,0,0,1.423-9.335C100.881,25.536,83.548,13.978,74.828,8.763Zm23.2,34.315c-.209.321-1.225,1.369-5.469,1.369h0c-5.872,0-13.933-2-19.322-3.565L74.54,14.55C83.9,20.4,96.75,29.92,98.78,37.8A6.3,6.3,0,0,1,98.024,43.079Zm-30.054.972a1.915,1.915,0,0,1-.117.528,3.78,3.78,0,0,1-3.017,2.262l-1.588.2a8.384,8.384,0,0,0-1.009-2.921L43.6,11.585,66.157,7.522l1.721-.309a3.159,3.159,0,0,1,.554-.051,1.546,1.546,0,0,1,1.111.364.862.862,0,0,1,.211.7l-.027.538L68.074,41.971ZM56.918,51.262,54.6,53.083,49.856,56.8l-.549.43a4.082,4.082,0,0,1-2.322.744A4.521,4.521,0,0,1,44.5,57.4a3.065,3.065,0,0,1-.326-.209L26.192,42.639l-7.023-5.683-6.018-4.87a2.418,2.418,0,0,1-.493-.547,1.75,1.75,0,0,1-.321-.933,2,2,0,0,1,.742-1.517L34.4,10.044a2.146,2.146,0,0,1,.792-.45,1.568,1.568,0,0,1,.469-.105,1.707,1.707,0,0,1,1.435.99l.272.474,1.484,2.592,18.969,33.1a3.2,3.2,0,0,1,.352,1.012,4,4,0,0,1-.431,2.619A3.28,3.28,0,0,1,56.918,51.262ZM43.235,63.109c-.4,1.8-2.031,3.2-3.224,3.237l-.555.019-2.575.088-16.263.557-12.724.435L6.2,67.5,6.15,69.864l-.005.173h0V67.5a.849.849,0,0,1-.7-.3,2.181,2.181,0,0,1-.306-1.721l.238-1.44L5.8,61.508,9.691,37.859a2.134,2.134,0,0,1,.732-1.427l30.546,24.72a8.615,8.615,0,0,0,2.4,1.34ZM32.871,96.29a6.356,6.356,0,0,1-2.828.686c-7.052,0-14.9-12.717-20.08-24.506l25.045-.854C36.344,83.325,35.916,94.807,32.871,96.29Z" fill="#b89d64"/></g></g></svg>