<svg xmlns="http://www.w3.org/2000/svg" xmlns:xlink="http://www.w3.org/1999/xlink" width="121" height="100" viewBox="0 0 121 100"><defs><clipPath id="a"><rect width="121" height="100" transform="translate(426 2304)" fill="#b89d64"/></clipPath></defs><g transform="translate(-426 -2304)" clip-path="url(#a)"><g transform="translate(433.019 2300.519)"><path d="M106.345,85.451a4.822,4.822,0,0,0-4.593-2.138A10.068,10.068,0,0,0,99.9,69.455a10.069,10.069,0,0,0,0-15.74c7.339-5.723,3.175-17.851-6.125-17.851H63.321a11.444,11.444,0,0,0-6.575-18.717A10.58,10.58,0,0,1,62.185,7.46c2.383-1.286.385-5-2-3.712a14.814,14.814,0,0,0-7.655,13.4,11.444,11.444,0,0,0-6.575,18.717H13.236c-9.3,0-13.464,12.128-6.125,17.851a10.07,10.07,0,0,0,0,15.74A10.068,10.068,0,0,0,5.258,83.313C1.849,83.2-1.351,86.219.587,89.771L6.712,101a4.365,4.365,0,0,0,3.833,2.275h61.76c2.708,0,2.712-4.218,0-4.218H10.545a.149.149,0,0,1-.131-.078L4.289,87.751a.149.149,0,0,1,.131-.221h98.17a.149.149,0,0,1,.131.221L96.6,98.978a.149.149,0,0,1-.131.078H89.417c-2.708,0-2.712,4.218,0,4.218h7.048A4.364,4.364,0,0,0,100.3,101l6.125-11.227a4.329,4.329,0,0,0-.078-4.32ZM54.637,21.166A7.238,7.238,0,1,1,47.4,28.4,7.247,7.247,0,0,1,54.637,21.166Zm28.3,34.658H93.774a5.762,5.762,0,0,1,.1,11.523l-.1,0H82.927Zm-2.109-4.218a2.109,2.109,0,0,0-2.109,2.109V67.037c0,5.711-8.877,5.722-8.877,0v-14.8a8.656,8.656,0,0,0-17.312,0v4.19c0,5.711-8.877,5.722-8.877,0V53.715a2.109,2.109,0,0,0-2.109-2.109H13.236a5.763,5.763,0,1,1,0-11.525H93.774a5.763,5.763,0,0,1,0,11.525ZM21.951,71.562c2.708,0,2.712-4.218,0-4.218l-8.816,0a5.762,5.762,0,0,1,.1-11.523h26.2a8.814,8.814,0,0,0,8.656,9.255,8.666,8.666,0,0,0,8.656-8.656q0-2.1.005-4.2c.017-5.688,8.85-5.7,8.866,0l.005,1.5V67.037c0,.1,0,.2.008.307H38.984c-2.708,0-2.712,4.218,0,4.218H66.9a8.649,8.649,0,0,0,14.748.005H93.773l.1,0a5.762,5.762,0,0,1-.1,11.523H13.236a5.762,5.762,0,0,1-.1-11.523Z" fill="#b89d64"/><path d="M29.236,71.21a2.107,2.107,0,1,0-.791-2.526A2.129,2.129,0,0,0,29.236,71.21Z" fill="#b89d64"/><path d="M80.338,99.308a2.108,2.108,0,1,0,2.323,1.176,2.13,2.13,0,0,0-2.323-1.176Z" fill="#b89d64"/></g></g></svg>