<svg xmlns="http://www.w3.org/2000/svg" xmlns:xlink="http://www.w3.org/1999/xlink" width="121" height="100" viewBox="0 0 121 100"><defs><clipPath id="a"><rect width="121" height="100" transform="translate(426 2304)" fill="#b89d64"/></clipPath></defs><g transform="translate(-426 -2304)" clip-path="url(#a)"><g transform="translate(436.501 2304)"><path d="M72,42.664a5.66,5.66,0,0,0,1.152-2.985c.126-1.959-.833-3.833-2.852-5.576a7.95,7.95,0,0,0,1.542-6.172c-.613-3.13-3.261-5.191-4.721-6.114a8.657,8.657,0,0,0,.083-5.719,10.043,10.043,0,0,0-5.464-5.554c-3.82-1.813-5.211-2.632-6.559-6.365a6.009,6.009,0,0,0-3.3-3.871A4.688,4.688,0,0,0,48.2.465l-1.852.968L47.668,3.06a2.412,2.412,0,0,1,.591,1.322s-.2.278-1.172.469a8.474,8.474,0,0,0-6.5,6.142c-1.833,1.153-6.823,4.544-7.83,7.871a14.1,14.1,0,0,0,.083,7.033c-2.479,1.213-7.177,4.223-7.53,9.755a12.25,12.25,0,0,0,1.758,7.673,6.773,6.773,0,0,0-2.475,5.211v3.2c0,3.821,2.244,6.815,5.111,6.815.888,0,2.646,1.434,3.383,3.682L43.521,93.973C44.63,97.351,47.728,100,50.569,100c2.871,0,5.944-2.555,7.154-5.946L69.057,62.227a7.826,7.826,0,0,1,2.38-3.682c2.339,0,3.973-2.8,3.973-6.815v-3.2A6.778,6.778,0,0,0,72,42.664ZM43.748,12.346a5.274,5.274,0,0,1,4-4.15c2.463-.487,3.382-1.722,3.719-2.671a3.413,3.413,0,0,0,.191-.932,6.359,6.359,0,0,1,.32.741c1.8,5,4.206,6.346,8.3,8.288a6.91,6.91,0,0,1,3.712,3.612,5.547,5.547,0,0,1-.239,3.889A29.53,29.53,0,0,1,49.208,18.4C43.589,15.963,43.729,12.609,43.748,12.346Zm-7.733,7.5c.419-1.383,2.642-3.368,4.8-4.912.729,2.024,2.559,4.641,7.041,6.585,7.375,3.2,11.576,3.106,16.454,3l.683-.014c.848.492,3.094,1.98,3.511,4.082a4.806,4.806,0,0,1-1.061,3.653c-4.741-2.17-11.825-1.915-17.662-1.712-2.409.089-4.688.17-6.394.061a7.742,7.742,0,0,1-6.9-4.319C36.443,26.149,35.194,22.555,36.015,19.851ZM28.706,35.869c.233-3.656,3.561-5.857,5.448-6.816a11.292,11.292,0,0,0,9.014,4.939c1.877.118,4.232.034,6.726-.056,6.16-.215,13.817-.491,17.43,2.155,1.152.842,2.5,2.109,2.423,3.37a3.383,3.383,0,0,1-1.63,2.261H31.4a6.927,6.927,0,0,0-1.225.123A8.606,8.606,0,0,1,28.706,35.869ZM41.693,77.506l.618-.63,4.78,4.557-3.031,3.273ZM53,75.052l-4.75,5.131-4.745-4.521,4.956-5.051Zm-3.346-5.661L55.4,63.539l4.356,4.222L54.162,73.8Zm4.86,23.519c-.751,2.106-2.7,3.683-3.946,3.683s-3.118-1.578-3.808-3.683l-2.089-6.355,3.656-3.946,7.355,7.014Zm1.8-5.044-6.826-6.508,4.736-5.116,4.62,4.516Zm3.159-8.874-4.09-4,5.6-6.046,1.54,1.494Zm12.537-27.26a6.113,6.113,0,0,1-.8,3.418c-2.3.187-4.372,3.165-5.36,5.934l-2.705,7.593-1.009-.981,1.235-1.331a.852.852,0,1,0-1.25-1.158l-1.208,1.3-4.319-4.186,4.513-4.6a.852.852,0,0,0-1.216-1.193L55.368,61.14,50.6,56.515a.852.852,0,0,0-1.184,1.225l4.763,4.615-5.736,5.85-4.927-4.818a.852.852,0,0,0-1.191,1.218l4.925,4.816-4.971,5.067L39.985,72.3l-3.659-11.13C35.2,57.735,32.35,55.145,29.7,55.145c-.7,0-1.7-1.327-1.7-3.407v-3.2a3.412,3.412,0,0,1,3.407-3.407H68.6a3.411,3.411,0,0,1,3.407,3.407l0,3.2Z" fill="#b89d64"/></g></g></svg>