<svg xmlns="http://www.w3.org/2000/svg" xmlns:xlink="http://www.w3.org/1999/xlink" width="121" height="100" viewBox="0 0 121 100"><defs><clipPath id="a"><rect width="121" height="100" transform="translate(426 2304)" fill="#b89d64"/></clipPath></defs><g transform="translate(-426 -2304)" clip-path="url(#a)"><g transform="translate(432.929 2304)"><path d="M105.357,57.143H96.429V48.214A16.089,16.089,0,0,0,82.143,32.248V17.678A8.929,8.929,0,0,0,80.357,0H19.643a8.929,8.929,0,0,0-1.786,17.678V32.143H16.071A16.089,16.089,0,0,0,0,48.214V91.071a1.786,1.786,0,0,0,1.786,1.786H7.143v5.357A1.786,1.786,0,0,0,8.929,100h7.143a1.786,1.786,0,0,0,1.786-1.786V92.857H78.571v5.357A1.786,1.786,0,0,0,80.357,100H87.5a1.786,1.786,0,0,0,1.786-1.786V92.857h5.357a1.786,1.786,0,0,0,1.786-1.786V67.857h8.929a1.786,1.786,0,0,0,1.786-1.786V58.929a1.786,1.786,0,0,0-1.786-1.786ZM85.714,8.929a5.363,5.363,0,0,1-5.357,5.357,1.786,1.786,0,0,0-1.786,1.786V32.143H67.857V17.678A8.943,8.943,0,0,0,75,8.929a8.845,8.845,0,0,0-1.831-5.357h7.188a5.363,5.363,0,0,1,5.357,5.357ZM19.643,14.286a5.357,5.357,0,1,1,0-10.714H66.071a5.357,5.357,0,0,1,0,10.714,1.786,1.786,0,0,0-1.786,1.786V32.143H21.429V16.071a1.786,1.786,0,0,0-1.786-1.786ZM14.286,96.429H10.714V92.857h3.571Zm71.429,0H82.143V92.857h3.571Zm7.143-7.143H3.571V48.214a12.515,12.515,0,0,1,12.5-12.5H80.357a12.515,12.515,0,0,1,12.5,12.5Zm10.714-25H96.429V60.714h7.143Zm0,0" fill="#b89d64"/><path d="M66.071,67.857H30.357a1.786,1.786,0,0,0,0,3.571H66.071a1.786,1.786,0,0,0,0-3.571Zm0,0" fill="#b89d64"/><path d="M66.071,75H30.357a1.786,1.786,0,0,0,0,3.571H66.071a1.786,1.786,0,0,0,0-3.571Zm0,0" fill="#b89d64"/><path d="M32.143,23.214a1.779,1.779,0,0,0,1.263-.523L44.12,11.977a1.786,1.786,0,0,0-2.525-2.525L30.88,20.166a1.786,1.786,0,0,0,1.263,3.048Zm0,0" fill="#b89d64"/><path d="M38.023,28.048a1.785,1.785,0,0,0,2.525,0L51.263,17.334a1.786,1.786,0,0,0-2.525-2.525L38.023,25.523a1.785,1.785,0,0,0,0,2.525Zm0,0" fill="#b89d64"/><path d="M19.643,75H8.929a1.786,1.786,0,0,0-1.786,1.786v7.143a1.786,1.786,0,0,0,1.786,1.786H19.643a1.786,1.786,0,0,0,1.786-1.786V76.786A1.786,1.786,0,0,0,19.643,75Zm-1.786,7.143H10.714V78.571h7.143Zm0,0" fill="#b89d64"/><path d="M14.286,57.143a7.143,7.143,0,1,0,7.143,7.143A7.143,7.143,0,0,0,14.286,57.143Zm0,10.714a3.571,3.571,0,1,1,3.571-3.571A3.572,3.572,0,0,1,14.286,67.857Zm0,0" fill="#b89d64"/></g></g></svg>